<svg version="1.1" id="Layer_1" xmlns="http://www.w3.org/2000/svg" xmlns:xlink="http://www.w3.org/1999/xlink" x="0px" y="0px" viewBox="0 0 96.2 104.3" style="enable-background:new 0 0 96.2 104.3;" xml:space="preserve">
 <style type="text/css">
  .st0{fill-rule:evenodd;clip-rule:evenodd;}
	.st1{fill-rule:evenodd;clip-rule:evenodd;fill:#00AA13;}
 </style>
 <g>
  <g id="Gojek-Logo_2_" transform="translate(164.000000, 160.000000)">
   <path id="Combined-Shape_4_" class="st0" d="M-112.6-83v21c0,4.4-1.8,6.3-6.5,6.3h-3.1v-4.6h2.7c1.4,0,2-0.5,2-1.8V-83H-112.6z
			 M-143.7-83.1v18.4c0,5.1-3.9,8.9-9.6,8.9c-3.7,0-7-1.3-9.2-3.6l0,0l3.3-3.1c1.4,1.4,3.1,2.2,5.8,2.2c2.8,0,4.9-1.8,4.9-4.2l0,0
			v-1.8h-0.1c-1.2,1.4-3.3,2.2-5.8,2.2c-5.5,0-9.7-4-9.7-9.5c0-5.3,4-9.3,9.5-9.3c2.5,0,4.7,0.7,6,2.1l0,0h0.1v-2.1H-143.7z
			 M-130.6-83.1c5.9,0,10.1,4.1,10.1,9.5s-4.2,9.5-10.1,9.5c-5.8,0-10.1-4.1-10.1-9.5S-136.5-83.1-130.6-83.1z M-99.9-83.1
			c6,0,9.7,4.3,9.7,9.6l0,0v1.4h-14.5c0.1,1.9,2.4,3.8,5.4,3.8c2,0,3.4-0.5,4.9-1.9l0,0l3.4,2.4c-1.4,1.8-4.2,3.6-8,3.6
			c-6.3,0-10.5-3.7-10.5-9.4C-109.7-79.1-105.6-83.1-99.9-83.1z M-82.5-88.5l0,12.9h0.1l8.1-7.6h6.5l-8.4,7.9l8.3,11h-5.8l-5.7-8
			h-0.1l-3,2.9v5.1h-4.8v-24.3H-82.5z M-130.6-78.7c-3.1,0-5.1,2.2-5.1,5.1s2,5.1,5.1,5.1c3.1,0,5.1-2.2,5.1-5.1
			C-125.5-76.5-127.5-78.7-130.6-78.7z M-153.6-78.7c-3.3,0-5.4,2-5.4,4.9c0,3.2,2,5.1,5.2,5.1c2.9,0,5.1-1.8,5.1-4l0,0h0v-2.1
			C-148.7-76.8-150.9-78.7-153.6-78.7z M-99.8-79c-2.7,0-4.6,1.4-4.8,3.5l0,0h9.6C-95.3-77.7-97.2-79-99.8-79z">
   </path>
  </g>
  <g id="Group_2_">
   <path id="Combined-Shape_5_" class="st1" d="M48.3,0c17.7,0,32,14.3,31.9,32.1c0,13.3-8,24.7-19.6,29.6c-0.6,0.3-1.5,0.5-2.3,0.5
			c-3.3,0-6-2.7-6-6c0-2.5,1.5-4.6,3.7-5.5l0,0l0.4-0.2c7-3.1,11.8-10.1,11.8-18.3c0-11.1-9-20-20-20s-20,9-20,20
			c0,8.3,5.1,15.4,12.3,18.5l0,0l0.3,0.1c2,1,3.4,3,3.4,5.4c0,3.3-2.7,6-6,6c-0.8,0-1.7-0.2-2.3-0.5c-11.6-5-19.6-16.3-19.6-29.6
			C16.2,14.3,30.6,0,48.3,0z M48.3,20c6.6,0,12,5.4,12,12s-5.4,12-12,12s-12-5.4-12-12S41.6,20,48.3,20z">
   </path>
  </g>
 </g>
</svg>